<?xml version="1.0" encoding="utf-8"?>
<!-- Generator: Adobe Illustrator 22.0.1, SVG Export Plug-In . SVG Version: 6.00 Build 0)  -->
<svg version="1.1" id="Calque_1" xmlns="http://www.w3.org/2000/svg" xmlns:xlink="http://www.w3.org/1999/xlink" x="0px" y="0px"
	 viewBox="0 0 44 44" style="enable-background:new 0 0 44 44;" xml:space="preserve">
<metadata><?xpacket begin="﻿" id="W5M0MpCehiHzreSzNTczkc9d"?>
<x:xmpmeta xmlns:x="adobe:ns:meta/" x:xmptk="Adobe XMP Core 5.6-c143 79.161210, 2017/08/11-10:28:36        ">
   <rdf:RDF xmlns:rdf="http://www.w3.org/1999/02/22-rdf-syntax-ns#">
      <rdf:Description rdf:about=""/>
   </rdf:RDF>
</x:xmpmeta>
                                                                                                    
                                                                                                    
                                                                                                    
                                                                                                    
                                                                                                    
                                                                                                    
                                                                                                    
                                                                                                    
                                                                                                    
                                                                                                    
                                                                                                    
                                                                                                    
                                                                                                    
                                                                                                    
                                                                                                    
                                                                                                    
                                                                                                    
                                                                                                    
                                                                                                    
                                                                                                    
                           
<?xpacket end="w"?></metadata>
<style type="text/css">
	.st0{clip-path:url(#SVGID_2_);}
</style>
<g>
	<defs>
		<rect id="SVGID_1_" x="0.1" width="43.9" height="44"/>
	</defs>
	<clipPath id="SVGID_2_">
		<use xlink:href="#SVGID_1_"  style="overflow:visible;"/>
	</clipPath>
	<path class="st0" d="M34,38.5c-0.3,0.2-0.6,0.4-0.9,0.6c-0.1,0.1-0.3,0.2-0.4,0.3c-0.4,0.2-0.8,0.5-1.2,0.7c-0.1,0-0.2,0.1-0.3,0.1
		c-0.9,0.5-1.8,0.9-2.8,1.2c0,0-0.1,0-0.1,0c-0.5,0.2-1,0.3-1.5,0.4h0c-0.5,0.1-1,0.2-1.6,0.3c0,0,0,0,0,0c-0.5,0.1-1,0.1-1.5,0.2
		c-0.1,0-0.2,0-0.3,0c-0.5,0-1,0.1-1.5,0.1c-0.5,0-1,0-1.5-0.1c-0.1,0-0.2,0-0.3,0c-0.5,0-1-0.1-1.5-0.2l-0.1,0
		c-1.1-0.2-2.1-0.4-3.1-0.8c0,0-0.1,0-0.1,0c-0.5-0.2-1-0.4-1.5-0.6c0,0,0,0,0,0c-0.5-0.2-0.9-0.4-1.4-0.7c-0.1,0-0.1-0.1-0.2-0.1
		c-0.4-0.2-0.8-0.5-1.2-0.7c-0.1-0.1-0.2-0.1-0.3-0.2c-0.4-0.2-0.7-0.5-1.1-0.7c0,0-0.1-0.1-0.1-0.1l0.1,0l6.3-3.4
		c1.1-0.6,1.8-1.7,1.8-3v-2.9l-0.2-0.2c0,0-1.7-2.1-2.4-5l-0.1-0.3l-0.3-0.2c-0.4-0.2-0.6-0.7-0.6-1.1v-2.8c0-0.4,0.2-0.7,0.4-1
		L15,18v-4.5l0-0.1c0,0-0.2-1.9,1.1-3.5c1.2-1.3,3.1-2,5.9-2c2.7,0,4.7,0.7,5.9,2c1.4,1.5,1.1,3.5,1.1,3.5l0,4.6l0.3,0.2
		c0.3,0.3,0.4,0.6,0.4,1v2.8c0,0.6-0.4,1.1-0.9,1.3l-0.4,0.1l-0.1,0.4c-0.5,1.5-1.1,2.8-2,4c-0.2,0.3-0.4,0.6-0.6,0.8l-0.2,0.2v3
		c0,1.3,0.7,2.4,1.9,3l6.8,3.4c0,0,0.1,0,0.1,0.1C34.1,38.4,34.1,38.4,34,38.5z M1.6,22C1.6,10.8,10.8,1.6,22,1.6S42.4,10.8,42.4,22
		c0,6.1-2.7,11.5-6.9,15.2c-0.2-0.2-0.5-0.3-0.7-0.4L28,33.4c-0.6-0.3-1-0.9-1-1.6v-2.4c0.2-0.2,0.3-0.4,0.5-0.7
		c0.9-1.2,1.6-2.6,2.1-4.1c1-0.5,1.7-1.5,1.7-2.6v-2.8c0-0.7-0.3-1.4-0.7-1.9v-3.7c0-0.4,0.2-2.8-1.5-4.7c-1.5-1.7-3.9-2.5-7.1-2.5
		s-5.6,0.9-7.1,2.5c-1.7,1.9-1.5,4.3-1.5,4.7v3.7c-0.5,0.5-0.7,1.2-0.7,1.9v2.8c0,0.9,0.4,1.7,1.1,2.3c0.6,2.5,2,4.5,2.5,5.1v2.3
		c0,0.7-0.4,1.3-0.9,1.6L9,36.8c-0.2,0.1-0.4,0.2-0.6,0.4C4.2,33.4,1.6,28,1.6,22z M44,22C44,9.9,34.1,0,22,0S0,9.9,0,22
		c0,6.4,2.8,12.2,7.1,16.2l0,0l0.7,0.6c0,0,0.1,0.1,0.1,0.1c0.4,0.3,0.8,0.6,1.2,0.9c0.1,0.1,0.3,0.2,0.4,0.3
		c0.4,0.3,0.9,0.6,1.3,0.8c0.1,0.1,0.2,0.1,0.3,0.2c0.5,0.3,1,0.5,1.5,0.8c0,0,0.1,0,0.1,0.1c1.7,0.8,3.5,1.3,5.3,1.7
		c0.1,0,0.1,0,0.1,0c0.6,0.1,1.2,0.2,1.8,0.2c0.1,0,0.1,0,0.2,0c0.6,0,1.2,0.1,1.8,0.1c0.6,0,1.2,0,1.8-0.1c0.1,0,0.1,0,0.2,0
		c0.6-0.1,1.2-0.1,1.7-0.2c0.1,0,0.1,0,0.2,0c1.8-0.3,3.6-0.9,5.2-1.6c0.1,0,0.1-0.1,0.2-0.1c0.5-0.2,1-0.5,1.5-0.8
		c0.1-0.1,0.2-0.1,0.4-0.2c0.4-0.3,0.9-0.5,1.3-0.8c0.1-0.1,0.3-0.2,0.4-0.3c0.4-0.2,0.7-0.5,1-0.8c0.1-0.1,0.2-0.1,0.2-0.2l0.7-0.6
		l0,0C41.2,34.2,44,28.4,44,22z"/>
</g>
</svg>
